<svg width="200" height="200" viewBox="0 0 200 200" fill="none" xmlns="http://www.w3.org/2000/svg">
  <!-- 背景圆形 -->
  <circle cx="100" cy="100" r="90" fill="url(#gradient)" />
  
  <!-- 书本形状 -->
  <path d="M60 70 L140 70 L140 140 L60 140 C50 140 45 135 45 130 L45 80 C45 75 50 70 60 70 Z" fill="white" />
  <path d="M60 75 L135 75 L135 135 L60 135 C55 135 50 132 50 127 L50 83 C50 78 55 75 60 75 Z" fill="#4F46E5" opacity="0.1" />
  
  <!-- 英文字母 S -->
  <path d="M75 95 C75 90 80 85 85 85 L115 85 C120 85 125 90 125 95 L125 100 C125 105 120 110 115 110 L85 110 C80 110 75 115 75 120 L75 125 C75 130 80 135 85 135 L115 135 C120 135 125 130 125 125" stroke="#4F46E5" stroke-width="8" stroke-linecap="round" fill="none" />
  
  <!-- 渐变定义 -->
  <defs>
    <linearGradient id="gradient" x1="0" y1="0" x2="200" y2="200">
      <stop offset="0%" stop-color="#4F46E5" />
      <stop offset="100%" stop-color="#818CF8" />
    </linearGradient>
  </defs>
</svg>